<svg width="174" height="154" viewBox="0 0 174 154" fill="none" xmlns="http://www.w3.org/2000/svg">
<path d="M71.3827 0.0693563C76.0421 -0.50275 80.2831 2.81068 80.8552 7.47011L80.9771 8.46266C81.5492 13.1221 78.2358 17.3631 73.5764 17.9352C68.9169 18.5073 64.6759 15.1939 64.1038 10.5344L63.982 9.54189C63.4098 4.88246 66.7233 0.641462 71.3827 0.0693563Z" fill="#E7E6D7"/>
<path d="M82.1607 28.4675C81.6559 24.3563 77.9139 21.4326 73.8026 21.9374C69.6914 22.4422 66.7677 26.1843 67.2725 30.2956L67.5922 32.8992C63.3019 34.1876 59.5414 36.1173 56.3459 38.7579C51.3516 42.8849 48.4678 48.1449 46.7824 53.5338C45.1368 58.7953 44.5523 64.44 44.2802 69.7322C44.129 72.6737 44.0622 76.0716 43.998 79.3325L43.998 79.3336C43.9541 81.5673 43.9114 83.7372 43.8437 85.6517C43.468 96.2807 42.2351 104.812 37.8386 111.273C33.7848 117.23 25.8581 123.034 8.16188 125.207C3.22837 125.813 -0.27997 130.303 0.32579 135.237C0.931549 140.17 5.42202 143.678 10.3555 143.073C31.3686 140.493 44.8515 132.963 52.7201 121.399C60.2459 110.339 61.4481 97.1616 61.8325 86.2876C61.9261 83.6384 61.9683 81.2958 62.0085 79.0667C62.06 76.2122 62.1081 73.5437 62.2565 70.6562C62.5036 65.8488 62.996 61.9947 63.9618 58.9069C64.8876 55.9465 66.1496 54.0071 67.8119 52.6334C69.499 51.2393 72.3304 49.8247 77.4152 49.2004C82.5001 48.5761 85.5896 49.2636 87.5639 50.2082C89.5091 51.1389 91.2028 52.7154 92.8173 55.3639C94.5014 58.1263 95.9116 61.7468 97.3143 66.3516C98.1567 69.1167 98.8487 71.6934 99.589 74.4498L99.5894 74.4515C100.168 76.6047 100.776 78.8683 101.507 81.4162C104.511 91.8741 108.865 104.369 118.843 113.28C129.276 122.597 144.18 126.641 165.193 124.061C170.126 123.455 173.635 118.965 173.029 114.031C172.423 109.098 167.933 105.589 162.999 106.195C145.303 108.368 136.208 104.654 130.833 99.8546C125.004 94.649 121.744 86.6696 118.808 76.4473C118.279 74.6056 117.713 72.5104 117.129 70.3531C116.278 67.2046 115.391 63.9238 114.533 61.1062C112.989 56.0371 111.056 50.7014 108.187 45.9943C105.247 41.1733 101.177 36.7671 95.3325 33.9709C91.4451 32.111 87.1511 31.1443 82.4699 30.9854L82.1607 28.4675Z" fill="#E7E6D7"/>
<path d="M86.4566 63.4548C85.9518 59.3435 82.2098 56.4199 78.0985 56.9247C73.9872 57.4295 71.0636 61.1716 71.5684 65.2828L74.4324 88.6077C74.9372 92.7189 78.6792 95.6425 82.7905 95.1377C86.9017 94.6329 89.8254 90.8909 89.3206 86.7796L86.4566 63.4548Z" fill="#E7E6D7"/>
<path d="M92.1845 110.104C91.6797 105.993 87.9376 103.07 83.8264 103.574C79.7151 104.079 76.7915 107.821 77.2963 111.932L78.7283 123.595C79.2331 127.706 82.9751 130.63 87.0864 130.125C91.1976 129.62 94.1212 125.878 93.6164 121.767L92.1845 110.104Z" fill="#E7E6D7"/>
<path d="M97.5513 143.449C96.9792 138.79 92.7382 135.476 88.0788 136.048C83.4194 136.62 80.1059 140.861 80.6781 145.521L80.7999 146.513C81.372 151.173 85.613 154.486 90.2725 153.914C94.9319 153.342 98.2453 149.101 97.6732 144.441L97.5513 143.449Z" fill="#E7E6D7"/>
</svg>
