<svg width="142" height="128" viewBox="0 0 142 128" fill="none" xmlns="http://www.w3.org/2000/svg">
<g filter="url(#filter0_f_119_93)">
<path fill-rule="evenodd" clip-rule="evenodd" d="M56.3914 25.9624C60.2399 23.5041 65.0598 22.263 71 22.263C76.9402 22.263 81.7601 23.5041 85.6086 25.9624C89.4687 28.428 92.0139 31.9024 93.7678 35.7748C95.4984 39.5955 96.5087 43.9143 97.2672 48.2416C97.6965 50.6904 98.0793 53.3782 98.4575 56.0338C98.726 57.9188 98.9921 59.7875 99.2709 61.5429C100.695 70.5067 102.729 78.5428 107.877 84.4168C112.855 90.0965 121.345 94.3842 137.182 94.3842C139.291 94.3842 141 96.0937 141 98.2024C141 100.311 139.291 102.021 137.182 102.021C137.182 102.021 120.194 105.158 71 105.158C21.8055 105.158 4.81818 102.021 4.81818 102.021C2.70946 102.021 1 100.311 1 98.2024C1 96.0937 2.70946 94.3842 4.81818 94.3842C20.6548 94.3842 29.1449 90.0965 34.1229 84.4168C39.2713 78.5428 41.3054 70.5067 42.7291 61.5429C43.0079 59.7874 43.274 57.9187 43.5425 56.0336C43.9207 53.3781 44.3035 50.6903 44.7328 48.2416C45.4913 43.9143 46.5016 39.5955 48.2322 35.7748C49.9861 31.9024 52.5313 28.428 56.3914 25.9624ZM71.0033 107.661C74.5179 107.661 77.367 110.51 77.367 114.025V120.711C77.367 124.226 74.5179 127.075 71.0033 127.075C67.4888 127.075 64.6397 124.226 64.6397 120.711V114.025C64.6397 110.51 67.4888 107.661 71.0033 107.661ZM71.0033 0.21167C74.5179 0.21167 77.367 3.06077 77.367 6.57531V13.2619C77.367 16.7764 74.5179 19.6255 71.0033 19.6255C67.4888 19.6255 64.6397 16.7764 64.6397 13.2619V6.57531C64.6397 3.06077 67.4888 0.21167 71.0033 0.21167ZM70.9894 79.9279C73.5667 79.9279 75.6561 81.9773 75.6561 84.5054V93.05C75.6561 95.578 73.5667 97.6274 70.9894 97.6274C68.4121 97.6274 66.3227 95.578 66.3227 93.05V84.5054C66.3227 81.9773 68.4121 79.9279 70.9894 79.9279ZM70.9894 54.8731C73.5667 54.8731 75.6561 56.9225 75.6561 59.4506V67.9952C75.6561 70.5233 73.5667 72.5727 70.9894 72.5727C68.4121 72.5727 66.3227 70.5233 66.3227 67.9952V59.4506C66.3227 56.9225 68.4121 54.8731 70.9894 54.8731ZM70.9894 29.9381C73.5667 29.9381 75.6561 31.9875 75.6561 34.5156V43.0602C75.6561 45.5882 73.5667 47.6376 70.9894 47.6376C68.4121 47.6376 66.3227 45.5882 66.3227 43.0602V34.5156C66.3227 31.9875 68.4121 29.9381 70.9894 29.9381Z" fill="#2A293A"/>
</g>
<defs>
<filter id="filter0_f_119_93" x="0.799403" y="0.0110725" width="140.401" height="127.265" filterUnits="userSpaceOnUse" color-interpolation-filters="sRGB">
<feFlood flood-opacity="0" result="BackgroundImageFix"/>
<feBlend mode="normal" in="SourceGraphic" in2="BackgroundImageFix" result="shape"/>
<feGaussianBlur stdDeviation="0.100299" result="effect1_foregroundBlur_119_93"/>
</filter>
</defs>
</svg>
