<svg width="38" height="41" viewBox="0 0 38 41" fill="none" xmlns="http://www.w3.org/2000/svg">
<g filter="url(#filter0_df_31_218)">
<path fill-rule="evenodd" clip-rule="evenodd" d="M17.8369 5.41168C18.7737 5.34618 19.5862 6.0525 19.6517 6.9893L19.6657 7.18886C19.7312 8.12566 19.0248 8.9382 18.088 9.00371C17.1512 9.06921 16.3387 8.36289 16.2732 7.42609L16.2592 7.22653C16.1937 6.28972 16.9001 5.47719 17.8369 5.41168ZM19.9201 11.5832C19.8546 10.6463 19.0421 9.94002 18.1052 10.0055C17.1684 10.071 16.4621 10.8836 16.5276 11.8204L16.5748 12.4956C15.563 12.7053 14.6753 13.0389 13.9125 13.5098C12.7091 14.2526 11.9291 15.2681 11.4606 16.4108C10.6238 18.4516 10.7993 20.9379 10.9374 22.893L10.9523 23.1052C11.1101 25.3608 11.1863 27.0073 10.7045 28.1823C10.4985 28.6848 10.1925 29.0769 9.69283 29.3853C9.16294 29.7124 8.31137 30.0077 6.92977 30.1043C5.93786 30.1737 5.18998 31.034 5.25934 32.0259C5.3287 33.0178 6.18903 33.7657 7.18094 33.6963C8.94236 33.5732 10.411 33.1735 11.5842 32.4494C12.7876 31.7066 13.5676 30.691 14.0361 29.5483C14.8729 27.5076 14.6973 25.0212 14.5593 23.0661L14.5443 22.854C14.3866 20.5984 14.3104 18.9518 14.7922 17.7769C14.9982 17.2744 15.3042 16.8823 15.8038 16.5739C16.3337 16.2468 17.1853 15.9515 18.5669 15.8549C19.9485 15.7582 20.8329 15.9322 21.4031 16.1823C21.9409 16.4182 22.2984 16.7639 22.5724 17.2328C23.213 18.3293 23.3667 19.9704 23.5244 22.226L23.5391 22.4382V22.4382C23.6745 24.3935 23.8467 26.8801 24.9594 28.7845C25.5824 29.8509 26.4961 30.748 27.7912 31.3161C29.0537 31.8699 30.5637 32.0612 32.3251 31.9381C33.317 31.8687 34.0649 31.0084 33.9955 30.0165C33.9262 29.0246 33.0658 28.2767 32.0739 28.346C30.6923 28.4427 29.8079 28.2687 29.2377 28.0186C28.6999 27.7827 28.3424 27.437 28.0684 26.9681C27.4278 25.8716 27.2742 24.2305 27.1164 21.9749L27.1017 21.7627V21.7627C26.9663 19.8074 26.7941 17.3209 25.6815 15.4164C25.0585 14.35 24.1447 13.4529 22.8497 12.8848C22.0008 12.5125 21.0401 12.304 19.9664 12.2447L19.9201 11.5832ZM20.412 18.6175C20.3465 17.6807 19.5339 16.9744 18.5971 17.0399C17.6603 17.1054 16.954 17.918 17.0195 18.8548L17.3474 23.5443C17.413 24.4811 18.2255 25.1875 19.1623 25.122C20.0991 25.0565 20.8054 24.2439 20.7399 23.3071L20.412 18.6175ZM21.0678 27.9967C21.0023 27.0599 20.1898 26.3536 19.253 26.4191C18.3162 26.4846 17.6099 27.2971 17.6754 28.2339L17.8393 30.5787C17.9048 31.5155 18.7174 32.2219 19.6542 32.1563C20.591 32.0908 21.2973 31.2783 21.2318 30.3415L21.0678 27.9967ZM21.5914 34.728C21.5259 33.7912 20.7133 33.0849 19.7765 33.1504C18.8397 33.2159 18.1334 34.0284 18.1989 34.9652L18.2129 35.1648C18.2784 36.1016 19.0909 36.8079 20.0277 36.7424C20.9645 36.6769 21.6708 35.8644 21.6053 34.9276L21.5914 34.728Z" fill="url(#paint0_linear_31_218)"/>
</g>
<defs>
<filter id="filter0_df_31_218" x="0.754883" y="0.907471" width="36.7451" height="39.3391" filterUnits="userSpaceOnUse" color-interpolation-filters="sRGB">
<feFlood flood-opacity="0" result="BackgroundImageFix"/>
<feColorMatrix in="SourceAlpha" type="matrix" values="0 0 0 0 0 0 0 0 0 0 0 0 0 0 0 0 0 0 127 0" result="hardAlpha"/>
<feOffset dx="-0.5" dy="-0.5"/>
<feGaussianBlur stdDeviation="2"/>
<feComposite in2="hardAlpha" operator="out"/>
<feColorMatrix type="matrix" values="0 0 0 0 0 0 0 0 0 0 0 0 0 0 0 0 0 0 0.25 0"/>
<feBlend mode="normal" in2="BackgroundImageFix" result="effect1_dropShadow_31_218"/>
<feBlend mode="normal" in="SourceGraphic" in2="effect1_dropShadow_31_218" result="shape"/>
<feGaussianBlur stdDeviation="0.025" result="effect2_foregroundBlur_31_218"/>
</filter>
<linearGradient id="paint0_linear_31_218" x1="19.6274" y1="5.40747" x2="19.6274" y2="36.7466" gradientUnits="userSpaceOnUse">
<stop stop-color="#0B195F"/>
<stop offset="1" stop-color="#400B5F"/>
</linearGradient>
</defs>
</svg>
