<svg width="29" height="26" viewBox="0 0 29 26" fill="none" xmlns="http://www.w3.org/2000/svg">
<path d="M11.8355 0.0106881C12.6109 -0.0845135 13.3166 0.46686 13.4118 1.24222L13.4322 1.40816C13.5274 2.18351 12.976 2.88924 12.2007 2.98444C11.4253 3.07964 10.7196 2.52827 10.6244 1.75291L10.604 1.58697C10.5088 0.811616 11.0602 0.10589 11.8355 0.0106881Z" fill="#292839"/>
<path d="M13.6291 4.73613C13.5451 4.05199 12.9224 3.56548 12.2383 3.64949C11.5541 3.73349 11.0676 4.35619 11.1516 5.04032L11.2048 5.47352C10.4909 5.68792 9.86512 6.00903 9.33338 6.44843C8.5023 7.13519 8.02243 8.0105 7.74196 8.90724C7.46813 9.78277 7.37085 10.7221 7.32558 11.6027C7.30042 12.0922 7.2893 12.6576 7.27863 13.2003C7.27131 13.5721 7.26421 13.9332 7.25295 14.2518C7.19042 16.0206 6.98526 17.4402 6.25366 18.5153C5.57909 19.5067 4.26004 20.4725 1.31529 20.834C0.494322 20.9348 -0.089485 21.6821 0.0113169 22.503C0.112119 23.324 0.859358 23.9078 1.68032 23.807C5.17702 23.3777 7.42066 22.1246 8.73003 20.2004C9.98237 18.36 10.1824 16.1671 10.2464 14.3577C10.262 13.9168 10.269 13.527 10.2757 13.156C10.2842 12.681 10.2922 12.237 10.3169 11.7565C10.3581 10.9565 10.44 10.3152 10.6007 9.80134C10.7548 9.30872 10.9648 8.98598 11.2414 8.7574C11.5221 8.52541 11.9933 8.29002 12.8394 8.18613C13.6856 8.08223 14.1997 8.19665 14.5282 8.35383C14.8519 8.5087 15.1338 8.77105 15.4024 9.21176C15.6827 9.67145 15.9173 10.2739 16.1508 11.0402C16.291 11.5005 16.4062 11.9294 16.5294 12.3882C16.6256 12.7464 16.7268 13.1232 16.8485 13.547C17.3483 15.2873 18.0729 17.3666 19.7333 18.8494C21.4693 20.3997 23.9494 21.0727 27.4461 20.6434C28.2671 20.5426 28.8509 19.7953 28.7501 18.9744C28.6493 18.1534 27.902 17.5696 27.0811 17.6704C24.1363 18.032 22.6228 17.414 21.7285 16.6153C20.7585 15.749 20.216 14.4212 19.7274 12.7202C19.6394 12.4137 19.5452 12.0651 19.4481 11.7061C19.3065 11.1821 19.1589 10.6362 19.0161 10.1673C18.7591 9.32379 18.4375 8.4359 17.96 7.65262C17.4709 6.85037 16.7935 6.11716 15.821 5.65186C15.1741 5.34236 14.4595 5.18149 13.6805 5.15504L13.6291 4.73613Z" fill="#292839"/>
<path d="M14.344 10.5582C14.26 9.87407 13.6373 9.38756 12.9531 9.47156C12.269 9.55556 11.7825 10.1783 11.8665 10.8624L12.3431 14.7438C12.4271 15.4279 13.0498 15.9144 13.7339 15.8304C14.418 15.7464 14.9045 15.1237 14.8205 14.4396L14.344 10.5582Z" fill="#292839"/>
<path d="M15.2971 18.321C15.2131 17.6368 14.5904 17.1503 13.9063 17.2343C13.2221 17.3183 12.7356 17.941 12.8196 18.6252L13.0579 20.5659C13.1419 21.25 13.7646 21.7365 14.4488 21.6525C15.1329 21.5685 15.6194 20.9458 15.5354 20.2617L15.2971 18.321Z" fill="#292839"/>
<path d="M16.1901 23.8699C16.0949 23.0945 15.3892 22.5431 14.6139 22.6383C13.8385 22.7335 13.2871 23.4393 13.3823 24.2146L13.4027 24.3806C13.4979 25.1559 14.2036 25.7073 14.979 25.6121C15.7543 25.5169 16.3057 24.8111 16.2105 24.0358L16.1901 23.8699Z" fill="#292839"/>
</svg>
