<svg width="142" height="129" viewBox="0 0 142 129" fill="none" xmlns="http://www.w3.org/2000/svg">
<g filter="url(#filter0_f_119_94)">
<path fill-rule="evenodd" clip-rule="evenodd" d="M56.3914 26.7507C60.2399 24.2924 65.0598 23.0513 71 23.0513C76.9402 23.0513 81.7601 24.2924 85.6086 26.7507C89.4687 29.2163 92.0139 32.6908 93.7678 36.5631C95.4984 40.3839 96.5087 44.7026 97.2672 49.0299C97.6965 51.4787 98.0793 54.1665 98.4575 56.8221C98.726 58.7071 98.9921 60.5758 99.2709 62.3312C100.695 71.295 102.729 79.3311 107.877 85.2051C112.855 90.8848 121.345 95.1726 137.182 95.1726C139.291 95.1726 141 96.882 141 98.9907C141 101.099 139.291 102.809 137.182 102.809C137.182 102.809 120.194 105.946 71 105.946C21.8055 105.946 4.81818 102.809 4.81818 102.809C2.70946 102.809 1 101.099 1 98.9907C1 96.882 2.70946 95.1726 4.81818 95.1726C20.6548 95.1726 29.1449 90.8848 34.1229 85.2051C39.2713 79.3311 41.3054 71.295 42.7291 62.3312C43.0079 60.5758 43.274 58.707 43.5425 56.822C43.9207 54.1664 44.3035 51.4786 44.7328 49.0299C45.4913 44.7026 46.5016 40.3839 48.2322 36.5631C49.9861 32.6908 52.5313 29.2163 56.3914 26.7507ZM71.0033 108.449C74.5179 108.449 77.367 111.299 77.367 114.813V121.5C77.367 125.014 74.5179 127.863 71.0033 127.863C67.4888 127.863 64.6397 125.014 64.6397 121.5V114.813C64.6397 111.299 67.4888 108.449 71.0033 108.449ZM71.0033 1C74.5179 1 77.367 3.8491 77.367 7.36364V14.0502C77.367 17.5648 74.5179 20.4139 71.0033 20.4139C67.4888 20.4139 64.6397 17.5648 64.6397 14.0502V7.36364C64.6397 3.8491 67.4888 1 71.0033 1ZM70.9894 80.7162C73.5667 80.7162 75.6561 82.7656 75.6561 85.2937V93.8383C75.6561 96.3664 73.5667 98.4158 70.9894 98.4158C68.4121 98.4158 66.3227 96.3664 66.3227 93.8383V85.2937C66.3227 82.7656 68.4121 80.7162 70.9894 80.7162ZM70.9894 55.6615C73.5667 55.6615 75.6561 57.7109 75.6561 60.2389V68.7835C75.6561 71.3116 73.5667 73.361 70.9894 73.361C68.4121 73.361 66.3227 71.3116 66.3227 68.7835V60.2389C66.3227 57.7109 68.4121 55.6615 70.9894 55.6615ZM70.9894 30.7264C73.5667 30.7264 75.6561 32.7758 75.6561 35.3039V43.8485C75.6561 46.3765 73.5667 48.4259 70.9894 48.4259C68.4121 48.4259 66.3227 46.3765 66.3227 43.8485V35.3039C66.3227 32.7758 68.4121 30.7264 70.9894 30.7264Z" fill="#E7E6D7"/>
</g>
<defs>
<filter id="filter0_f_119_94" x="0.799403" y="0.799403" width="140.401" height="127.264" filterUnits="userSpaceOnUse" color-interpolation-filters="sRGB">
<feFlood flood-opacity="0" result="BackgroundImageFix"/>
<feBlend mode="normal" in="SourceGraphic" in2="BackgroundImageFix" result="shape"/>
<feGaussianBlur stdDeviation="0.100299" result="effect1_foregroundBlur_119_94"/>
</filter>
</defs>
</svg>
